<?xml version="1.0" encoding="utf-8"?>
<!-- Generator: Adobe Illustrator 19.1.0, SVG Export Plug-In . SVG Version: 6.00 Build 0)  -->
<svg version="1.1" id="Type" xmlns="http://www.w3.org/2000/svg" xmlns:xlink="http://www.w3.org/1999/xlink" x="0px" y="0px"
	 viewBox="0 0 551.597 89.207" enable-background="new 0 0 551.597 89.207" xml:space="preserve">
<path d="M49.106,82.903c-1.324,0-2.399,1.086-2.399,2.411c0,1.335,1.075,2.422,2.399,2.422c1.324,0,2.405-1.086,2.405-2.422
	C51.511,83.989,50.43,82.903,49.106,82.903z"/>
<polygon points="551.597,3.893 551.597,1.562 499.254,1.562 499.254,87.644 551.597,87.644 551.597,85.313 501.653,85.313 
	501.653,44.087 548.688,44.087 548.688,41.75 501.653,41.75 501.653,3.893 "/>
<path d="M329.097,1.562h-2.02l-33.38,86.082h2.66l9.738-25.147h43.996l9.733,25.147h2.66L329.097,1.562z M306.972,60.166
	L328.09,5.452l21.118,54.713H306.972z"/>
<polygon points="388.519,3.893 419.116,3.893 419.116,87.644 421.52,87.644 421.52,3.893 452.111,3.893 452.111,1.562 
	388.519,1.562 "/>
<path d="M0,16.343l0.249,2.199c7.967-0.9,16.693-5.572,19.477-11.145v80.248h2.399V0.911h-2.15C18.459,10.118,7.707,15.692,0,16.343
	z"/>
<path d="M139.141,42.4l-10.746-2.591c-12.013-2.855-20.23-8.559-20.23-19.837c0-12.449,12.517-17.63,25.413-17.63
	c14.413,0,23.896,6.997,28.451,19.961l2.524-0.648C160.135,7.911,149.638,0,133.579,0c-13.655,0-28.073,5.71-28.073,20.357
	c0,13.225,11.001,19.194,21.876,21.783l11.38,2.721c13.785,3.243,25.158,7.914,25.158,21.008c0,16.727-17.7,21.005-28.825,21.005
	c-14.412,0-25.917-7.266-30.223-22.306l-2.53,0.656c4.556,16.206,16.947,23.981,32.882,23.981c15.805,0,31.355-7.005,31.355-23.472
	C166.581,49.791,151.404,45.383,139.141,42.4z"/>
<polygon points="204.131,3.893 234.733,3.893 234.733,87.644 237.132,87.644 237.132,3.893 267.729,3.893 267.729,1.562 
	204.131,1.562 "/>
</svg>
