<svg xmlns="http://www.w3.org/2000/svg" viewBox="0 0 691.36 761.4"><defs><style>.cls-1{fill:none;stroke:#f9f9f9;stroke-miterlimit:10;stroke-width:4px;}</style></defs><g id="Layer_2" data-name="Layer 2"><g id="Layer_1-2" data-name="Layer 1"><path class="cls-1" d="M623.31,583.84c-11.06,9.73-2.72,27.69-2.92,40-.38,22.7-23,44.57-44.12,49.05-22,4.67-45,.13-66.86-3-30.6-4.37-59.29-17.33-86.57-31.87-6-3.22-12.16-6.63-16.59-11.84-12.15-14.28-7.41-36.12.26-53.23s17.91-34.87,14.69-53.34c-2.25-12.89-11-25.18-8-37.91,4.93-21.23,35.15-23,50.39-38.55,11.55-11.81,12.93-30.27,10.56-46.62s-7.8-32.4-7.3-48.92,20.66-29.85,25-38.93A67.58,67.58,0,0,1,438.65,316c35.83-20.5,77.47-41.65,116.48-28.22l-37.32,54.45c-2,2.85-4,6-3.71,9.44.54,6.72,9.95,9.45,15.84,6.16s8.85-10,11.44-16.2c-9.77-.63-19.85-1.2-29.13,2s-17.66,11.06-18.31,20.84A103.12,103.12,0,0,0,552,355.27a132.64,132.64,0,0,1-6.92,100.33c-5.87,11.78-12,29.21-.36,35.35a122.7,122.7,0,0,0-27.12,29.74c-3.65,5.65-6.76,13.36-2.66,18.69,2.34,3,6.32,4.2,10,5.19l74.58,19.83c8.24,2.19,17.78,4.17,24.68-.85,16.89-12.29-6.15-41.29,4.14-59.48,8.71.9,13.89,10.87,11.76,18.86a4.68,4.68,0,0,1-1.42,2.59,5.5,5.5,0,0,1-2.06.89A321.73,321.73,0,0,1,528.84,537c20-18.38,45.33-30.41,71.83-36.19,10.73-2.34,21.9-3.69,32.68-1.61a3.54,3.54,0,0,0,2.14,0,2.33,2.33,0,0,0,.89-2.85c-.63-1.78-4-3.66-5.4-4.79-3.41-2.76-7.64-4.63-8.25-9.46-.87-6.76,2.88-9.09,5.06-15.29a.78.78,0,0,1,.05-.14c5.64-17.16-28.24-11.42-34.17-3.34-.78,1.08-1.4,2.26-2.13,3.36,11.36.3,23.8-1.82,34.94-2.48,2.54-.14-3.06-5-.54-5.12A113.89,113.89,0,0,0,641,457.33c16.19-3.18,21.43-26.88,10.66-38-.52-.53-1-1.05-1.54-1.59-4.64-5-9-10.3-13.24-15.68-4-5.17-8.54-10-11.11-16.12-3.9-9.31,3.89-17.07,6.29-25.87,2.47-9,3-18.91.47-28-.28-1-5.1-11.47-5.69-10.89-8.62,8.47-22.58,10.51-34.57,11.9-.75-10,7.31-18.6,15.91-23.82,10.56-6.42,22.69-10,35-11.46,6.74-.82,13.63-1,20.27.36s13.07,4.5,17.61,9.55c7.53,8.39,8.83,20.65,8.15,31.9A130.61,130.61,0,0,1,679,382a159.93,159.93,0,0,1-13.93,26q-2,3.07-4.2,6.08c-.75,1-1.5,2.07-2.28,3.09-1,1.28-.93,1.72-2.27.85-4-2.6-7.57-6.65-11-10a206.4,206.4,0,0,1-19.6-22.18q-4.5-5.91-8.55-12.1c-.76-1.16-7-12.53-7.5-12.43-14.26,2.58-19.29,19.91-23.14,33.89-7.83,28.43-28.92,58.8-58.34,57.07-21.86-1.29-36.53-21.59-44.1-42.16s-7.68-43.1-12.46-64.49c-23,4.09-49.63,5.62-72.77,2.33q-1.43-11.49-2.86-23a242,242,0,0,0,78-1.27c20.25-3.65,40.56-9.93,61-7.48,17.22,2.06,33.2,10.21,50.32,13.05s37.81-1.83,45.1-17.58q-2.68-12.08-5.35-24.15a89,89,0,0,1-30,12.2c-1.42-16.09,21.45-23,27.53-38,4.54-11.16-1.38-23.57-7.16-34.14q-26.89-49.19-53.78-98.37c-3.1-5.67-6.53-11.67-12.31-14.58-10-5-21.66,1.26-31,7.34-21.23,13.82-44.5,30.7-47.86,55.82-1.05,7.8,0,16-2.7,23.38-7.1,19.69-37.27,27.15-37.69,48.08-.22,10.77,8.09,19.49,13.67,28.72,13,21.46,11.17,50.92-4.39,70.61-8.35,10.58-19.91,18.14-29.17,27.94C391,397,382.85,427.43,389.35,454.76c7.11,29.85,30.34,57.29,24.51,87.42-5.18,26.71-32.29,46.14-34,73.29-.33,5.29-1.31,12.58-6.6,12.75-2.7.08-4.89-2-6.74-4-9.11-9.71-18.9-23.07-13.15-35.09,2.19-4.56,6.29-7.86,9.9-11.42C391,550.4,390.57,505.07,378.82,468s-32.72-71.15-40.7-109.24c-1.1-5.24-1.92-10.82-.06-15.84,2.08-5.65,7.14-9.55,11.84-13.31,25-20,48.15-50.11,40.58-81.22-4.2-17.23-17.55-34.09-11.51-50.77,2.16-6,6.57-10.77,10.88-15.41q31.47-34,63-67.9c5.89-6.36,12.24-14.64,9.38-22.83-1.13-3.27-3.62-5.88-6.27-8.11-25.6-21.55-71.76-7.16-80.59,25.14-8,29.28,9.93,65.57-10,88.46-13.39,15.4-39.77,17.88-47.7,36.68-6.69,15.85,3.94,33,10.13,49.07s3.15,40.45-13.95,42.21c-5.75.59-12.19-1.73-17,1.49-3.78,2.52-4.94,7.53-5.12,12.07-1,24.11,19.58,47.06,43.63,48.69-.87-7.77-11.08-9.89-18.9-9.79-14.66.18-30.18,1.36-42.2,9.76s-18.47,26.42-9.79,38.24c10.31,14,31.63,10.24,48.73,13.45C340.55,444,360.77,473.58,355.6,501s-34.8,47.58-62.16,42.37c-8.77-1.67-17.94-6.53-20.43-15.11-3-10.35,6-21.41,16.59-23.45s21.43,2.91,29.65,9.88c18.85,16,26.75,44.9,15.73,67.06s-41.67,33-62.85,20.23c-8.84-5.34-15.62-17.65-9.21-25.75,3.6-4.53,9.93-5.79,15.71-6,29.1-.93,58,20.14,64.14,48.62s-13.17,60.62-41.62,66.78-60.18-17-61.25-46.11c-.29-8,1.68-16.48,7.2-22.31,12.06-12.68,33.24-7.12,48.74,1,14.22,7.43,28,16.57,37.4,29.6s13.67,30.58,7.75,45.5c-9.69,24.44-40.26,31.85-66.44,34.14-16.14,1.41-33.45,1.91-47.3-6.49-5.4-3.27-10.34-8.49-10.5-14.8-.12-4.94,2.79-9.58,6.7-12.6,11.75-9.08,30.94-2.84,37.49,10.49s1.74,30.38-9,40.67-26.08,14.56-40.92,14.71c-45.71.44-84.12-33.6-113.21-68.89-4.9-5.94-9.93-12.17-16.91-15.42S64.42,672.65,60.12,679c-2.74,4.06-2.78,9.4-1.71,14.19,5.29,23.72,32.28,35.13,56.2,39.36,16.4,2.91,34.08,4,49-3.41s25.27-26.09,18.49-41.31c-3.55-7.94-11.07-13.61-19.25-16.54C141,663.53,114,676.21,106.1,698c9.57,5,19.33,10,30,11.79,30,5.13,60.33-19.08,66.52-48.87s-8.9-61.55-33.18-79.89c-6.47-4.89-16.8-8.48-21.73-2-4.67,6.09.62,14.85,6.63,19.61,23.06,18.26,59.18,15.9,81.08-3.72s28.54-53.66,17.59-81c-4.26-10.63-11.31-20.65-21.54-25.8-19.66-9.87-46.93,5-49.52,26.86s20.15,42.65,41.72,38.32,34.57-32,24.37-51.48c-7-13.42-21.43-20.86-33.43-30.11s-22.86-24.09-18.1-38.47c1.51-4.57,4.82-8.79,9.39-10.3,9.91-3.25,19,6.74,29.05,9.34,18.92,4.87,34.54-18.48,32.28-37.9s-14.88-35.82-22.43-53.85-8.23-42.52,8-53.42c7.11-4.77,16.45-6.09,22.42-12.22,8.29-8.51,6.65-22.47,2.73-33.69s-9.64-22.65-7.65-34.37c4.45-26.16,43.76-37.13,44.09-63.67.09-7.4-3.13-14.41-4.3-21.71-4-25,16.81-48.11,40.31-57.45,7.25-2.88,15.19-5.1,20.46-10.84s5.83-16.63-1.12-20.17c-2.66-1.36-5.8-1.35-8.78-1.1a69.81,69.81,0,0,0-53.38,33.21c-9,15.08-12.91,34.38-27.42,44.27-14.23,9.7-36,8.08-45.6,22.38-10.17,15.14,1.3,34.83,4,52.87,4,26.93-12.85,52.63-32.33,71.64-11,10.78-23.36,20.66-31.31,33.88s-10.54,31.2-1.4,43.63c4.77,6.5,12.05,10.64,17.74,16.34,12.57,12.59,16.34,32,13.94,49.59s-10.2,34-18.06,50c-5.5,11.14-13.44,23.81-25.85,24.08-12.23.26-21-12.29-23.54-24.26-2.76-13.18-.17-28.37,10-37.21,15.5-13.51,41.87-5.34,53.05,11.92s10.53,39.65,6.22,59.76c-4,18.66-11.13,37.22-24.27,51S149.49,557.15,131,552.66c-4.65-1.12-9.39-3.23-12-7.26-5.16-8,.74-18.79,8.32-24.54,16.39-12.46,41.28-12.12,57.32.78s21.74,37.15,13.12,55.85c-9.84,21.34-34.89,32.32-58.37,32.15s-45.85-9.39-67.29-18.94c-9.49-4.23-20.78-12.6-17.1-22.32,2.55-6.71,10.92-8.87,18.09-9.2,23.9-1.09,49.36,9.17,61.41,29.85s6.08,51.49-15.31,62.22c-20.8,10.43-48.53-2.36-57.51-23.85s-1-47.7,15.87-63.74c14.27-13.58,35.61-23.49,38.39-43,1.22-8.54-1.65-17.06-2.78-25.62a65,65,0,0,1,24.8-59.16c7.74-5.84,17.14-10.22,22.08-18.58,16.21-27.39-29.74-60.66-16.93-89.81,6.44-14.63,25.26-20.38,32.44-34.66,13.92-27.66-25-59.92-13.87-88.82,9.37-24.29,48.11-28.27,54.13-53.6,3-12.53-3.73-25.29-4.05-38.17-.69-28,27.35-47.33,53-58.47C274.82,49.4,286.59,43.56,288,32.66,278.42,45.52,260.66,49,244.61,49S212,46.87,196.84,52.15c-6.65,2.32-13.27,6.61-15.48,13.31-1.53,4.62-.73,9.64-.27,14.49a101.21,101.21,0,0,1-30.58,81.69c-12.08,11.47-27.61,20.68-33.77,36.17-12.3,30.95,20,63.62,15.91,96.68-2.39,19.07-18.35,35.62-37.3,38.69S56,325.61,47.74,308.28c-4.55-9.49-5.22-21.84,1.75-29.73,6.12-6.93,16.32-8.57,25.54-8,30.42,2,58.23,25.38,65.37,55s-7,63.18-33.22,78.77C95.3,411.44,80.55,415,67.47,410.47S44.23,392,47,378.48c1-4.92,3.78-9.65,8.16-12.12,3.88-2.19,8.58-2.4,13-2,29.12,2.88,51.24,34.77,45.18,63.42S75.83,476.56,47,471.45c-8.54-1.51-17.27-5.33-21.83-12.72S22.11,440,29.85,436c3-1.52,6.51-1.77,9.9-1.92,25.22-1.06,52.17,3.06,71.32,19.52s26.63,48.07,10.6,67.59C104.29,542.41,71.4,539.6,44.92,532.6c-12.76-3.38-26-7.67-34.95-17.4S-1.46,488.65,8,479.48c7.62-7.34,20.39-7.15,29.47-1.72s15,15,18.87,24.82c5.53,14,7.41,30.78-.83,43.35s-29.32,16.35-38.09,4.15c-4.14-5.74-4.66-13.25-5-20.32-1.46-27.58-2.9-55.48,2.15-82.64C24,396.48,55.34,351.56,62.06,300.49c4.49-34.1-2.06-70.38,11.65-101.92,8.39-19.29,23.55-34.65,37.5-50.4A543.76,543.76,0,0,0,179.4,51.9c7.52-13.52,15.28-28.2,29-35.26,23.76-12.21,51.88,3.84,78.59,4.3,27.34.47,52.4-15.64,79.61-18.47s53.78,7.77,80.86,11.44C470.1,17,493.14,15.2,515.79,18s46.11,11.2,59.6,29.61c7,9.57,10.5,23.66,3.1,32.93s-27,4-24.91-7.66c1.84-10.43,16.13-12.11,26.54-10.15,15.21,2.87,31.6,9.43,37.83,23.61,5.32,12.1,1.44,26.67-6.4,37.3s-11.61,13.14-22.62,20.44"/></g></g></svg>